<svg xmlns="http://www.w3.org/2000/svg" viewBox="0 0 246.99 119.44"><defs><style>.cls-1{fill:#fff;}</style></defs><g id="Ebene_2" data-name="Ebene 2"><g id="Ebene_1-2" data-name="Ebene 1"><polygon class="cls-1" points="50.58 47.91 50.58 34.87 26.62 53.24 50.58 74.27 50.58 63.09 67.61 63.09 67.61 110.47 0 50.31 67.61 0 67.61 48.45 50.58 47.91"/><path class="cls-1" d="M105.37,5,84.49,51.35l-8.3-4.58L67.61,64.51l8.58,5.14L67.61,87.39h18.6L92.79,74.8l54.63,18.88Zm.32,38.44,9.65,20.49-16-5.72Z"/><polygon class="cls-1" points="126.01 27.77 126.01 46.44 147.1 46.44 147.1 104.89 164.56 119.44 164.56 46.69 184.21 46.69 184.21 27.77 126.01 27.77"/><path class="cls-1" d="M213.34,3.06,179.51,53.62l33.83,53.53L247,53.43Zm-.09,72.31L199.77,53.62l13.48-20.08,13.66,20.08Z"/></g></g></svg>