<svg xmlns="http://www.w3.org/2000/svg" viewBox="0 0 311.61 49.35"><defs><style>.cls-1{fill:#fff;}</style></defs><g id="Ebene_2" data-name="Ebene 2"><g id="Ebene_1-2" data-name="Ebene 1"><path class="cls-1" d="M84,0V49.35h19.26V41h31.88v8.31h19.26V0Zm51.14,28H103.27V13.05h31.88Z"/><polygon class="cls-1" points="229.52 0 229.52 13.05 203.9 13.05 203.9 49.35 184.63 49.35 184.63 13.05 159.4 13.05 159.4 0 229.52 0"/><polygon class="cls-1" points="77.99 0 77.99 21.3 58.73 21.3 58.73 13.05 19.28 13.05 19.28 36.28 58.73 36.28 58.73 27.98 77.99 27.98 77.99 49.35 0 49.35 0 0 77.99 0"/><path class="cls-1" d="M234.15,0V13.05l9.67,11.62-9.67,11.61V49.35h77.46V0Zm58.2,36.28H253.87l9.67-11.61-9.67-11.62h38.48Z"/></g></g></svg>