<svg xmlns="http://www.w3.org/2000/svg" viewBox="0 0 49.35 311.61"><defs><style>.cls-1{fill:#fff;}</style></defs><g id="Ebene_2" data-name="Ebene 2"><g id="Ebene_1-2" data-name="Ebene 1"><path class="cls-1" d="M0,227.6H49.35V208.34H41V176.46h8.31V157.2H0Zm28-51.14v31.88H13.05V176.46Z"/><polygon class="cls-1" points="0 82.09 13.05 82.09 13.05 107.72 49.35 107.72 49.35 126.98 13.05 126.98 13.05 152.22 0 152.22 0 82.09"/><polygon class="cls-1" points="0 233.62 21.3 233.62 21.3 252.89 13.05 252.89 13.05 292.33 36.28 292.33 36.28 252.89 27.98 252.89 27.98 233.62 49.35 233.62 49.35 311.61 0 311.61 0 233.62"/><path class="cls-1" d="M0,77.46H13.05l11.62-9.67,11.61,9.67H49.35V0H0Zm36.28-58.2V57.74L24.67,48.07,13.05,57.74V19.26Z"/></g></g></svg>