<svg width="20" xmlns="http://www.w3.org/2000/svg" viewBox="0 0 140.62 142.59"><defs><style>.cls-1{fill:#fff;}</style></defs><g id="Ebene_2" data-name="Ebene 2"><g id="Ebene_1-2" data-name="Ebene 1"><path class="cls-1" d="M8.44,142.59l-2-.74c-2.85-1.07-3.35-2.39-3.14-5.38a19.59,19.59,0,0,0-1-6A12.87,12.87,0,0,0,.84,128c-1.54-2.94-1-4.29,1.91-6A74.76,74.76,0,0,0,22,105.87c2.61-3.06,5.84-5.42,10.14-5.76a22.15,22.15,0,0,0,3.18-.73,3.12,3.12,0,0,0,2.45-2.7,66.75,66.75,0,0,1,2.94-10.21c1.25-3,3.33-5.58,5-8.38a4.42,4.42,0,0,0,.94-2.5c-.89-5.29,1.29-9.25,5.27-12.34a58.43,58.43,0,0,1,7.84-5.09,6,6,0,0,0,3.32-4c.55-2.52.78-5.1,1.16-7.66.73-4.86,1.49-9.71,2.19-14.58a14,14,0,0,0-.07-2.42c-.84.07-1.91-.17-2.47.26-3.71,2.81-8,4.28-12.23,6.14-1.14.5-2,2-2.62,3.26-1.36,2.47-2.11,5.37-3.84,7.5a34.31,34.31,0,0,0-6.49,12.88c-.53,2-1.23,3.84-4,3-.46-.13-1.12.25-1.64.49-1.44.68-2.84,1.48-4.3,2.11-1.12.48-2.53,1.73-3.41.14-.34-.61.6-2.15,1.28-3a11.37,11.37,0,0,1,2.83-2.36,20.21,20.21,0,0,0,9.42-13c1.26-5.3,3.49-10.37,7.83-14.07a38.51,38.51,0,0,1,12.63-7.55c2.88-1,5.64-2.3,8.42-3.54a14.22,14.22,0,0,1,8.93-1c2.47.51,3.66-.32,4.4-2.72.41-1.33.13-2-1.29-2.38-.7-.18-1.71-1-1.73-1.54a3.38,3.38,0,0,1,1.06-2.6A4.51,4.51,0,0,0,81,7.9,9,9,0,0,1,88.84,0c2-.17,4.09.68,6.12,1.13,1.2.27,2.36.66,3.53,1,1.44.44,2.27,1.31,1.86,2.92-.71,2.83-1.3,5.65-.09,8.53a1.9,1.9,0,0,1-.27,1.56c-.91,1.18-2,2.25-3.23,3.66-2.07-.57-5.35,0-6.15-4.26-1.28,1.92-.61,2.89.42,4a2.8,2.8,0,0,1,.69,2.06c-.4,2.53.2,3.34,2.52,4.25a6.74,6.74,0,0,1,3.13,2.65c1.3,2.2,2.48,4.33,4.76,5.8,1.14.74,1.73,2.28,2.75,3.29a3.41,3.41,0,0,0,2.24,1.12c3.16-.18,6.29-.72,9.44-.9s6.12-.54,8.78-2.61,5.53-3.06,8.85-1.14a42,42,0,0,0,4.67,1.77,9.52,9.52,0,0,1,1.76,1.32c-.68.79-1.31,2.21-2,2.26-3.94.26-8,2.2-11.84-.34a2.2,2.2,0,0,0-1.61,0c-5.6,1.73-11.16,3.61-16.8,5.19a6.63,6.63,0,0,1-4.35-.49,85.42,85.42,0,0,1-8.2-4.91c-1.83-1.19-3.26-1.29-4.57.4-3.32,4.27-6.42,8.69-9.72,13a28.73,28.73,0,0,1-3.25,3.07,22.22,22.22,0,0,0-3.31,3.34,1.49,1.49,0,0,0,1.52,2.4c7.28-.93,13.13,2.37,18.62,6.46a68.09,68.09,0,0,1,8,7,14.61,14.61,0,0,1,2.8,4.83c1.58,4,3,8.12,4.39,12.24,1.47,4.47,2.72,9,4.21,13.49a9.31,9.31,0,0,0,5.13,5.5c2.75,1.36,5.08,3.56,7.67,5.29a33.65,33.65,0,0,0,3.36,1.63,19.35,19.35,0,0,1,1.65,1.07c-.58.46-1.18,1.32-1.72,1.28a12.86,12.86,0,0,1-3.93-1c-1.2-.47-2.26-1.28-3.44-1.85a4.82,4.82,0,0,0-5,.13c-1.59,1-2.76.44-3.51-1.18a7.5,7.5,0,0,1-.93-2.2c-.56-4.86-3.22-8.59-6.3-12.14-1.8-2.06-3.55-4.17-5.21-6.33-2.63-3.43-3.34-7.51-3.65-11.67-.18-2.44-1.2-3.31-3.66-2.84C86.36,81.51,77.72,82.3,69,81.07a4,4,0,0,0-4.83,2.6C61.62,89.12,57,92.88,52.78,97c-2.12,2-4,4.38-6,6.52a6.48,6.48,0,0,1-2.1,1.45c-2.49,1-5.16,1.76-7.53,3-8.33,4.41-16.49,9.14-24.88,13.44-3.64,1.87-4.95,4.58-4.93,8.39a44.9,44.9,0,0,1-.46,4.75c-.37,3.54.42,4.67,3.78,5.38a5.4,5.4,0,0,1,1,.34,4.44,4.44,0,0,1,.71.65l-1.79,1.69Zm88.41-66.5a69,69,0,0,1-25.77,2.24C74.55,80.94,94.71,79.39,96.85,76.09ZM73.37,68.57c-2.76.11-4.68,3.3-4.81,8.68C70.28,74.14,71.85,71.3,73.37,68.57ZM139,36.07c-2.46-1-4.69-3.58-7.89-1.1C133.62,37.25,136.65,34.58,139,36.07ZM63.09,70.4c-2.51,2.45-3.21,6.41-1.52,8.88ZM72.63,43l1.62,2.77,1.3-3.28Zm8.25-21-.1,1,5.25.66.08-.71Zm10.23-7.6.9-.12L91.63,11l-.83.1A2.65,2.65,0,0,0,91.11,14.46Z"/></g></g></svg>